<?xml version="1.0" encoding="UTF-8" standalone="no"?>
<svg width="100px" height="29px" viewBox="0 0 100 29" version="1.1" xmlns="http://www.w3.org/2000/svg" xmlns:xlink="http://www.w3.org/1999/xlink">
    <!-- Generator: Sketch 41.1 (35376) - http://www.bohemiancoding.com/sketch -->
    <title>picnic</title>
    <desc>Created with Sketch.</desc>
    <defs></defs>
    <g id="Page-1" stroke="none" stroke-width="1" fill="none" fill-rule="evenodd">
        <g id="4-0-leading" transform="translate(-657.000000, -1368.000000)">
            <g id="picnic" transform="translate(657.000000, 1368.000000)">
                <g id="Capa_1">
                    <rect id="Rectangle" fill="#FFFFFF" x="0" y="0" width="100" height="29"></rect>
                    <g id="Group" transform="translate(18.627451, 1.666667)" fill="#7C9D3E">
                        <path d="M61.6993464,21.9607843 C58.0078431,21.9607843 54.9532026,19.2104575 54.4575163,15.6517647 C55.7814379,16.9652288 57.6010458,17.7777778 59.6078431,17.7777778 C60.1861438,17.7777778 60.6535948,17.3103268 60.6535948,16.7320261 C60.6535948,16.1537255 60.1861438,15.6862745 59.6078431,15.6862745 C56.7247059,15.6862745 54.379085,13.3406536 54.379085,10.4575163 L54.379085,10.4303268 C55.2554248,11.0943791 56.3346405,11.503268 57.5163399,11.503268 C58.0946405,11.503268 58.5620915,11.035817 58.5620915,10.4575163 C58.5620915,9.87921569 58.0946405,9.41176471 57.5163399,9.41176471 C55.7866667,9.41176471 54.379085,8.00418301 54.379085,6.2745098 C54.379085,5.69620915 53.911634,5.22875817 53.3333333,5.22875817 C52.7550327,5.22875817 52.2875817,5.69620915 52.2875817,6.2745098 C52.2875817,8.00418301 50.88,9.41176471 49.1503268,9.41176471 C48.5720261,9.41176471 48.1045752,9.87921569 48.1045752,10.4575163 C48.1045752,11.035817 48.5720261,11.503268 49.1503268,11.503268 C50.3320261,11.503268 51.4112418,11.0943791 52.2875817,10.4303268 L52.2875817,10.4575163 C52.2875817,13.3406536 49.9419608,15.6862745 47.0588235,15.6862745 C46.4805229,15.6862745 46.0130719,16.1537255 46.0130719,16.7320261 C46.0130719,17.3103268 46.4805229,17.7777778 47.0588235,17.7777778 C49.0656209,17.7777778 50.8852288,16.9652288 52.2091503,15.6517647 C51.7134641,19.2104575 48.6588235,21.9607843 44.9673203,21.9607843 C44.3890196,21.9607843 43.9215686,22.4282353 43.9215686,23.0065359 C43.9215686,23.5848366 44.3890196,24.0522876 44.9673203,24.0522876 C47.9226144,24.0522876 50.5610458,22.6802614 52.2875817,20.5437908 L52.2875817,25.0980392 C52.2875817,25.6763399 52.7550327,26.1437908 53.3333333,26.1437908 C53.911634,26.1437908 54.379085,25.6763399 54.379085,25.0980392 L54.379085,20.5437908 C56.1056209,22.6802614 58.7440523,24.0522876 61.6993464,24.0522876 C62.2776471,24.0522876 62.745098,23.5848366 62.745098,23.0065359 C62.745098,22.4282353 62.2776471,21.9607843 61.6993464,21.9607843 L61.6993464,21.9607843 Z" id="Shape"></path>
                        <path d="M8.36601307,20.5437908 L8.36601307,25.0980392 C8.36601307,25.6763399 8.83346405,26.1437908 9.41176471,26.1437908 C9.99006536,26.1437908 10.4575163,25.6763399 10.4575163,25.0980392 L10.4575163,20.5437908 C12.1840523,22.6802614 14.8224837,24.0522876 17.7777778,24.0522876 C18.3560784,24.0522876 18.8235294,23.5848366 18.8235294,23.0065359 C18.8235294,22.4282353 18.3560784,21.9607843 17.7777778,21.9607843 C14.0862745,21.9607843 11.031634,19.2104575 10.5359477,15.6517647 C11.8598693,16.9652288 13.6794771,17.7777778 15.6862745,17.7777778 C16.2645752,17.7777778 16.7320261,17.3103268 16.7320261,16.7320261 C16.7320261,16.1537255 16.2645752,15.6862745 15.6862745,15.6862745 C12.8031373,15.6862745 10.4575163,13.3406536 10.4575163,10.4575163 L10.4575163,10.4303268 C11.3338562,11.0943791 12.4130719,11.503268 13.5947712,11.503268 C14.1730719,11.503268 14.6405229,11.035817 14.6405229,10.4575163 C14.6405229,9.87921569 14.1730719,9.41176471 13.5947712,9.41176471 C11.865098,9.41176471 10.4575163,8.00418301 10.4575163,6.2745098 C10.4575163,5.69620915 9.99006536,5.22875817 9.41176471,5.22875817 C8.83346405,5.22875817 8.36601307,5.69620915 8.36601307,6.2745098 C8.36601307,8.00418301 6.95843137,9.41176471 5.22875817,9.41176471 C4.65045752,9.41176471 4.18300654,9.87921569 4.18300654,10.4575163 C4.18300654,11.035817 4.65045752,11.503268 5.22875817,11.503268 C6.41045752,11.503268 7.4896732,11.0943791 8.36601307,10.4303268 L8.36601307,10.4575163 C8.36601307,13.3406536 6.02039216,15.6862745 3.1372549,15.6862745 C2.55895425,15.6862745 2.09150327,16.1537255 2.09150327,16.7320261 C2.09150327,17.3103268 2.55895425,17.7777778 3.1372549,17.7777778 C5.14405229,17.7777778 6.96366013,16.9652288 8.2875817,15.6517647 C7.79189542,19.2104575 4.7372549,21.9607843 1.04575163,21.9607843 C0.46745098,21.9607843 0,22.4282353 0,23.0065359 C0,23.5848366 0.46745098,24.0522876 1.04575163,24.0522876 C4.00104575,24.0522876 6.63947712,22.6802614 8.36601307,20.5437908 L8.36601307,20.5437908 Z" id="Shape"></path>
                        <path d="M23.0065359,18.8235294 C25.9618301,18.8235294 28.6002614,17.4515033 30.3267974,15.3150327 L30.3267974,19.869281 C30.3267974,20.4475817 30.7942484,20.9150327 31.372549,20.9150327 C31.9508497,20.9150327 32.4183007,20.4475817 32.4183007,19.869281 L32.4183007,15.3150327 C34.1448366,17.4515033 36.783268,18.8235294 39.7385621,18.8235294 C40.3168627,18.8235294 40.7843137,18.3560784 40.7843137,17.7777778 C40.7843137,17.1994771 40.3168627,16.7320261 39.7385621,16.7320261 C36.0470588,16.7320261 32.9924183,13.9816993 32.496732,10.4230065 C33.8206536,11.7364706 35.6402614,12.5490196 37.6470588,12.5490196 C38.2253595,12.5490196 38.6928105,12.0815686 38.6928105,11.503268 C38.6928105,10.9249673 38.2253595,10.4575163 37.6470588,10.4575163 C34.7639216,10.4575163 32.4183007,8.11189542 32.4183007,5.22875817 L32.4183007,5.20156863 C33.2946405,5.86562092 34.3738562,6.2745098 35.5555556,6.2745098 C36.1338562,6.2745098 36.6013072,5.80705882 36.6013072,5.22875817 C36.6013072,4.65045752 36.1338562,4.18300654 35.5555556,4.18300654 C33.8258824,4.18300654 32.4183007,2.77542484 32.4183007,1.04575163 C32.4183007,0.46745098 31.9508497,0 31.372549,0 C30.7942484,0 30.3267974,0.46745098 30.3267974,1.04575163 C30.3267974,2.77542484 28.9192157,4.18300654 27.1895425,4.18300654 C26.6112418,4.18300654 26.1437908,4.65045752 26.1437908,5.22875817 C26.1437908,5.80705882 26.6112418,6.2745098 27.1895425,6.2745098 C28.3712418,6.2745098 29.4504575,5.86562092 30.3267974,5.20156863 L30.3267974,5.22875817 C30.3267974,8.11189542 27.9811765,10.4575163 25.0980392,10.4575163 C24.5197386,10.4575163 24.0522876,10.9249673 24.0522876,11.503268 C24.0522876,12.0815686 24.5197386,12.5490196 25.0980392,12.5490196 C27.1048366,12.5490196 28.9244444,11.7364706 30.248366,10.4230065 C29.7526797,13.9816993 26.6980392,16.7320261 23.0065359,16.7320261 C22.4282353,16.7320261 21.9607843,17.1994771 21.9607843,17.7777778 C21.9607843,18.3560784 22.4282353,18.8235294 23.0065359,18.8235294 L23.0065359,18.8235294 Z" id="Shape"></path>
                    </g>
                </g>
            </g>
        </g>
    </g>
</svg>